<?xml version="1.0" encoding="UTF-8" standalone="no"?>
<!-- Created with Inkscape (http://www.inkscape.org/) -->

<svg
   width="210mm"
   height="297mm"
   viewBox="0 0 210 297"
   version="1.1"
   id="svg34994"
   inkscape:version="1.2.2 (732a01da63, 2022-12-09)"
   sodipodi:docname="45b.svg"
   xmlns:inkscape="http://www.inkscape.org/namespaces/inkscape"
   xmlns:sodipodi="http://sodipodi.sourceforge.net/DTD/sodipodi-0.dtd"
   xmlns="http://www.w3.org/2000/svg"
   xmlns:svg="http://www.w3.org/2000/svg">
  <sodipodi:namedview
     id="namedview34996"
     pagecolor="#ffffff"
     bordercolor="#000000"
     borderopacity="0.25"
     inkscape:showpageshadow="2"
     inkscape:pageopacity="0.0"
     inkscape:pagecheckerboard="0"
     inkscape:deskcolor="#d1d1d1"
     inkscape:document-units="mm"
     showgrid="false"
     inkscape:zoom="0.7162458"
     inkscape:cx="459.33952"
     inkscape:cy="355.32495"
     inkscape:window-width="1920"
     inkscape:window-height="991"
     inkscape:window-x="-9"
     inkscape:window-y="-9"
     inkscape:window-maximized="1"
     inkscape:current-layer="layer1" />
  <defs
     id="defs34991" />
  <g
     inkscape:label="Warstwa 1"
     inkscape:groupmode="layer"
     id="layer1">
    <rect
       style="fill:#ff0000;fill-opacity:0.7;stroke:none;stroke-width:7.52967;paint-order:stroke markers fill"
       id="rect35415"
       width="27.873659"
       height="25.293961"
       x="56.117004"
       y="93.63604" />
    <rect
       style="fill:#00ffff;fill-opacity:0.7;stroke:none;stroke-width:6.18708;paint-order:stroke markers fill"
       id="rect37403"
       width="18.76145"
       height="25.215664"
       x="113.32149"
       y="169.80353"
       transform="matrix(0.7405445,-0.67200733,0,1,0,0)" />
    <rect
       style="fill:#ffff00;fill-opacity:0.7;stroke:none;stroke-width:6.49493;paint-order:stroke markers fill"
       id="rect38185"
       width="27.787376"
       height="18.76145"
       x="159.25345"
       y="120.48908"
       transform="matrix(1,0,-0.74054453,0.67200729,0,0)" />
    <rect
       style="fill:#ff0000;fill-opacity:0.7;stroke:none;stroke-width:7.52967;paint-order:stroke markers fill"
       id="rect45459"
       width="27.873659"
       height="25.293961"
       x="93.597656"
       y="93.63604" />
    <rect
       style="fill:#00ffff;fill-opacity:0.7;stroke:none;stroke-width:6.18708;paint-order:stroke markers fill"
       id="rect45461"
       width="18.76145"
       height="25.215664"
       x="163.93378"
       y="203.81535"
       transform="matrix(0.7405445,-0.67200733,0,1,0,0)" />
    <rect
       style="fill:#ffff00;fill-opacity:0.7;stroke:none;stroke-width:6.49493;paint-order:stroke markers fill"
       id="rect45463"
       width="27.787376"
       height="18.76145"
       x="196.73409"
       y="120.48908"
       transform="matrix(1,0,-0.74054453,0.67200729,0,0)" />
    <rect
       style="fill:#ff0000;fill-opacity:0.7;stroke:none;stroke-width:7.52967;paint-order:stroke markers fill"
       id="rect45465"
       width="27.873659"
       height="25.293961"
       x="131.07831"
       y="93.63604" />
    <rect
       style="fill:#00ffff;fill-opacity:0.7;stroke:none;stroke-width:6.18708;paint-order:stroke markers fill"
       id="rect45467"
       width="18.76145"
       height="25.215664"
       x="214.54605"
       y="237.82719"
       transform="matrix(0.7405445,-0.67200733,0,1,0,0)" />
    <rect
       style="fill:#ffff00;fill-opacity:0.7;stroke:none;stroke-width:6.49493;paint-order:stroke markers fill"
       id="rect45469"
       width="27.787376"
       height="18.76145"
       x="234.21475"
       y="120.48908"
       transform="matrix(1,0,-0.74054453,0.67200729,0,0)" />
    <rect
       style="fill:#ff0000;fill-opacity:0.7;stroke:none;stroke-width:7.52967;paint-order:stroke markers fill"
       id="rect45489"
       width="27.873659"
       height="25.293961"
       x="56.117004"
       y="59.624229" />
    <rect
       style="fill:#00ffff;fill-opacity:0.7;stroke:none;stroke-width:6.18708;paint-order:stroke markers fill"
       id="rect45491"
       width="18.76145"
       height="25.215664"
       x="113.32149"
       y="135.7917"
       transform="matrix(0.7405445,-0.67200733,0,1,0,0)" />
    <rect
       style="fill:#ffff00;fill-opacity:0.7;stroke:none;stroke-width:6.49493;paint-order:stroke markers fill"
       id="rect45493"
       width="27.787376"
       height="18.76145"
       x="121.77279"
       y="69.876778"
       transform="matrix(1,0,-0.74054453,0.67200729,0,0)" />
    <rect
       style="fill:#ff0000;fill-opacity:0.7;stroke:none;stroke-width:7.52967;paint-order:stroke markers fill"
       id="rect45495"
       width="27.873659"
       height="25.293961"
       x="93.597656"
       y="59.624229" />
    <rect
       style="fill:#00ffff;fill-opacity:0.7;stroke:none;stroke-width:6.18708;paint-order:stroke markers fill"
       id="rect45497"
       width="18.76145"
       height="25.215664"
       x="163.93378"
       y="169.80353"
       transform="matrix(0.7405445,-0.67200733,0,1,0,0)" />
    <rect
       style="fill:#ffff00;fill-opacity:0.7;stroke:none;stroke-width:6.49493;paint-order:stroke markers fill"
       id="rect45499"
       width="27.787376"
       height="18.76145"
       x="159.25345"
       y="69.876778"
       transform="matrix(1,0,-0.74054453,0.67200729,0,0)" />
    <rect
       style="fill:#ff0000;fill-opacity:0.7;stroke:none;stroke-width:7.52967;paint-order:stroke markers fill"
       id="rect45501"
       width="27.873659"
       height="25.293961"
       x="131.07831"
       y="59.624229" />
    <rect
       style="fill:#00ffff;fill-opacity:0.7;stroke:none;stroke-width:6.18708;paint-order:stroke markers fill"
       id="rect45503"
       width="18.76145"
       height="25.215664"
       x="214.54605"
       y="203.81535"
       transform="matrix(0.7405445,-0.67200733,0,1,0,0)" />
    <rect
       style="fill:#ffff00;fill-opacity:0.7;stroke:none;stroke-width:6.49493;paint-order:stroke markers fill"
       id="rect45505"
       width="27.787376"
       height="18.76145"
       x="196.73409"
       y="69.876778"
       transform="matrix(1,0,-0.74054453,0.67200729,0,0)" />
    <rect
       style="fill:#ff0000;fill-opacity:0.7;stroke:none;stroke-width:7.52967;paint-order:stroke markers fill"
       id="rect45507"
       width="27.873659"
       height="25.293961"
       x="56.117004"
       y="25.025986" />
    <rect
       style="fill:#00ffff;fill-opacity:0.7;stroke:none;stroke-width:6.18708;paint-order:stroke markers fill"
       id="rect45509"
       width="18.76145"
       height="25.215664"
       x="113.32149"
       y="101.19347"
       transform="matrix(0.7405445,-0.67200733,0,1,0,0)" />
    <rect
       style="fill:#ffff00;fill-opacity:0.7;stroke:none;stroke-width:6.49493;paint-order:stroke markers fill"
       id="rect45511"
       width="27.787376"
       height="18.76145"
       x="83.645927"
       y="18.391861"
       transform="matrix(1,0,-0.74054453,0.67200729,0,0)" />
    <rect
       style="fill:#ff0000;fill-opacity:0.7;stroke:none;stroke-width:7.52967;paint-order:stroke markers fill"
       id="rect45513"
       width="27.873659"
       height="25.293961"
       x="93.597656"
       y="25.025986" />
    <rect
       style="fill:#00ffff;fill-opacity:0.7;stroke:none;stroke-width:6.18708;paint-order:stroke markers fill"
       id="rect45515"
       width="18.76145"
       height="25.215664"
       x="163.93378"
       y="135.20529"
       transform="matrix(0.7405445,-0.67200733,0,1,0,0)" />
    <rect
       style="fill:#ffff00;fill-opacity:0.7;stroke:none;stroke-width:6.49493;paint-order:stroke markers fill"
       id="rect45517"
       width="27.787376"
       height="18.76145"
       x="121.12657"
       y="18.391861"
       transform="matrix(1,0,-0.74054453,0.67200729,0,0)" />
    <rect
       style="fill:#ff0000;fill-opacity:0.7;stroke:none;stroke-width:7.52967;paint-order:stroke markers fill"
       id="rect45519"
       width="27.873659"
       height="25.293961"
       x="131.07831"
       y="25.025986" />
    <rect
       style="fill:#00ffff;fill-opacity:0.7;stroke:none;stroke-width:6.18708;paint-order:stroke markers fill"
       id="rect45521"
       width="18.76145"
       height="25.215664"
       x="214.54605"
       y="169.2171"
       transform="matrix(0.7405445,-0.67200733,0,1,0,0)" />
    <rect
       style="fill:#ffff00;fill-opacity:0.7;stroke:none;stroke-width:6.49493;paint-order:stroke markers fill"
       id="rect45523"
       width="27.787376"
       height="18.76145"
       x="158.60722"
       y="18.391861"
       transform="matrix(1,0,-0.74054453,0.67200729,0,0)" />
    <rect
       style="fill:#ff0000;fill-opacity:0.7;stroke:none;stroke-width:7.52967;paint-order:stroke markers fill"
       id="rect45525"
       width="27.873659"
       height="25.293961"
       x="37.376675"
       y="110.05554" />
    <rect
       style="fill:#00ffff;fill-opacity:0.7;stroke:none;stroke-width:6.18708;paint-order:stroke markers fill"
       id="rect45527"
       width="18.76145"
       height="25.215664"
       x="88.01535"
       y="169.21713"
       transform="matrix(0.7405445,-0.67200733,0,1,0,0)" />
    <rect
       style="fill:#ffff00;fill-opacity:0.7;stroke:none;stroke-width:6.49493;paint-order:stroke markers fill"
       id="rect45529"
       width="27.787376"
       height="18.76145"
       x="158.60722"
       y="144.92259"
       transform="matrix(1,0,-0.74054453,0.67200729,0,0)" />
    <rect
       style="fill:#ff0000;fill-opacity:0.7;stroke:none;stroke-width:7.52967;paint-order:stroke markers fill"
       id="rect45531"
       width="27.873659"
       height="25.293961"
       x="74.857338"
       y="110.05554" />
    <rect
       style="fill:#00ffff;fill-opacity:0.7;stroke:none;stroke-width:6.18708;paint-order:stroke markers fill"
       id="rect45533"
       width="18.76145"
       height="25.215664"
       x="138.62762"
       y="203.22896"
       transform="matrix(0.7405445,-0.67200733,0,1,0,0)" />
    <rect
       style="fill:#ffff00;fill-opacity:0.7;stroke:none;stroke-width:6.49493;paint-order:stroke markers fill"
       id="rect45535"
       width="27.787376"
       height="18.76145"
       x="196.08789"
       y="144.92259"
       transform="matrix(1,0,-0.74054453,0.67200729,0,0)" />
    <rect
       style="fill:#ff0000;fill-opacity:0.7;stroke:none;stroke-width:7.52967;paint-order:stroke markers fill"
       id="rect45537"
       width="27.873659"
       height="25.293961"
       x="112.33798"
       y="110.05554" />
    <rect
       style="fill:#00ffff;fill-opacity:0.7;stroke:none;stroke-width:6.18708;paint-order:stroke markers fill"
       id="rect45539"
       width="18.76145"
       height="25.215664"
       x="189.23991"
       y="237.2408"
       transform="matrix(0.7405445,-0.67200733,0,1,0,0)" />
    <rect
       style="fill:#ffff00;fill-opacity:0.7;stroke:none;stroke-width:6.49493;paint-order:stroke markers fill"
       id="rect45541"
       width="27.787376"
       height="18.76145"
       x="233.56856"
       y="144.92259"
       transform="matrix(1,0,-0.74054453,0.67200729,0,0)" />
    <rect
       style="fill:#ff0000;fill-opacity:0.7;stroke:none;stroke-width:7.52967;paint-order:stroke markers fill"
       id="rect45543"
       width="27.873659"
       height="25.293961"
       x="37.376675"
       y="76.043709" />
    <rect
       style="fill:#00ffff;fill-opacity:0.7;stroke:none;stroke-width:6.18708;paint-order:stroke markers fill"
       id="rect45545"
       width="18.76145"
       height="25.215664"
       x="88.01535"
       y="135.20529"
       transform="matrix(0.7405445,-0.67200733,0,1,0,0)" />
    <rect
       style="fill:#ffff00;fill-opacity:0.7;stroke:none;stroke-width:6.49493;paint-order:stroke markers fill"
       id="rect45547"
       width="27.787376"
       height="18.76145"
       x="121.12657"
       y="94.310303"
       transform="matrix(1,0,-0.74054453,0.67200729,0,0)" />
    <rect
       style="fill:#ff0000;fill-opacity:0.7;stroke:none;stroke-width:7.52967;paint-order:stroke markers fill"
       id="rect45549"
       width="27.873659"
       height="25.293961"
       x="74.857338"
       y="76.043709" />
    <rect
       style="fill:#00ffff;fill-opacity:0.7;stroke:none;stroke-width:6.18708;paint-order:stroke markers fill"
       id="rect45551"
       width="18.76145"
       height="25.215664"
       x="138.62762"
       y="169.21713"
       transform="matrix(0.7405445,-0.67200733,0,1,0,0)" />
    <rect
       style="fill:#ffff00;fill-opacity:0.7;stroke:none;stroke-width:6.49493;paint-order:stroke markers fill"
       id="rect45553"
       width="27.787376"
       height="18.76145"
       x="158.60722"
       y="94.310303"
       transform="matrix(1,0,-0.74054453,0.67200729,0,0)" />
    <rect
       style="fill:#ff0000;fill-opacity:0.7;stroke:none;stroke-width:7.52967;paint-order:stroke markers fill"
       id="rect45555"
       width="27.873659"
       height="25.293961"
       x="112.33798"
       y="76.043709" />
    <rect
       style="fill:#00ffff;fill-opacity:0.7;stroke:none;stroke-width:6.18708;paint-order:stroke markers fill"
       id="rect45557"
       width="18.76145"
       height="25.215664"
       x="189.23991"
       y="203.22896"
       transform="matrix(0.7405445,-0.67200733,0,1,0,0)" />
    <rect
       style="fill:#ffff00;fill-opacity:0.7;stroke:none;stroke-width:6.49493;paint-order:stroke markers fill"
       id="rect45559"
       width="27.787376"
       height="18.76145"
       x="196.08789"
       y="94.310303"
       transform="matrix(1,0,-0.74054453,0.67200729,0,0)" />
    <rect
       style="fill:#ff0000;fill-opacity:0.7;stroke:none;stroke-width:7.52967;paint-order:stroke markers fill"
       id="rect45561"
       width="27.873659"
       height="25.293961"
       x="37.376675"
       y="41.445488" />
    <rect
       style="fill:#00ffff;fill-opacity:0.7;stroke:none;stroke-width:6.18708;paint-order:stroke markers fill"
       id="rect45563"
       width="18.76145"
       height="25.215664"
       x="88.01535"
       y="100.60706"
       transform="matrix(0.7405445,-0.67200733,0,1,0,0)" />
    <rect
       style="fill:#ffff00;fill-opacity:0.7;stroke:none;stroke-width:6.49493;paint-order:stroke markers fill"
       id="rect45565"
       width="27.787376"
       height="18.76145"
       x="82.99971"
       y="42.825382"
       transform="matrix(1,0,-0.74054453,0.67200729,0,0)" />
    <rect
       style="fill:#ff0000;fill-opacity:0.7;stroke:none;stroke-width:7.52967;paint-order:stroke markers fill"
       id="rect45567"
       width="27.873659"
       height="25.293961"
       x="74.857338"
       y="41.445488" />
    <rect
       style="fill:#00ffff;fill-opacity:0.7;stroke:none;stroke-width:6.18708;paint-order:stroke markers fill"
       id="rect45569"
       width="18.76145"
       height="25.215664"
       x="138.62762"
       y="134.61888"
       transform="matrix(0.7405445,-0.67200733,0,1,0,0)" />
    <rect
       style="fill:#ffff00;fill-opacity:0.7;stroke:none;stroke-width:6.49493;paint-order:stroke markers fill"
       id="rect45571"
       width="27.787376"
       height="18.76145"
       x="120.48035"
       y="42.825382"
       transform="matrix(1,0,-0.74054453,0.67200729,0,0)" />
    <rect
       style="fill:#ff0000;fill-opacity:0.7;stroke:none;stroke-width:7.52967;paint-order:stroke markers fill"
       id="rect45573"
       width="27.873659"
       height="25.293961"
       x="112.33798"
       y="41.445488" />
    <rect
       style="fill:#00ffff;fill-opacity:0.7;stroke:none;stroke-width:6.18708;paint-order:stroke markers fill"
       id="rect45575"
       width="18.76145"
       height="25.215664"
       x="189.23991"
       y="168.63071"
       transform="matrix(0.7405445,-0.67200733,0,1,0,0)" />
    <rect
       style="fill:#ffff00;fill-opacity:0.7;stroke:none;stroke-width:6.49493;paint-order:stroke markers fill"
       id="rect45577"
       width="27.787376"
       height="18.76145"
       x="157.96101"
       y="42.825382"
       transform="matrix(1,0,-0.74054453,0.67200729,0,0)" />
    <rect
       style="fill:#ff0000;fill-opacity:0.7;stroke:none;stroke-width:7.52967;paint-order:stroke markers fill"
       id="rect47031"
       width="27.873659"
       height="25.293961"
       x="17.343914"
       y="125.88863" />
    <rect
       style="fill:#00ffff;fill-opacity:0.7;stroke:none;stroke-width:6.18708;paint-order:stroke markers fill"
       id="rect47033"
       width="18.76145"
       height="25.215664"
       x="60.963951"
       y="166.87149"
       transform="matrix(0.7405445,-0.67200733,0,1,0,0)" />
    <rect
       style="fill:#ffff00;fill-opacity:0.7;stroke:none;stroke-width:6.49493;paint-order:stroke markers fill"
       id="rect47035"
       width="27.787376"
       height="18.76145"
       x="156.02235"
       y="168.48347"
       transform="matrix(1,0,-0.74054453,0.67200729,0,0)" />
    <rect
       style="fill:#ff0000;fill-opacity:0.7;stroke:none;stroke-width:7.52967;paint-order:stroke markers fill"
       id="rect47037"
       width="27.873659"
       height="25.293961"
       x="54.824577"
       y="125.88863" />
    <rect
       style="fill:#00ffff;fill-opacity:0.7;stroke:none;stroke-width:6.18708;paint-order:stroke markers fill"
       id="rect47039"
       width="18.76145"
       height="25.215664"
       x="111.57623"
       y="200.88332"
       transform="matrix(0.7405445,-0.67200733,0,1,0,0)" />
    <rect
       style="fill:#ffff00;fill-opacity:0.7;stroke:none;stroke-width:6.49493;paint-order:stroke markers fill"
       id="rect47041"
       width="27.787376"
       height="18.76145"
       x="193.50302"
       y="168.48347"
       transform="matrix(1,0,-0.74054453,0.67200729,0,0)" />
    <rect
       style="fill:#ff0000;fill-opacity:0.7;stroke:none;stroke-width:7.52967;paint-order:stroke markers fill"
       id="rect47043"
       width="27.873659"
       height="25.293961"
       x="92.305222"
       y="125.88863" />
    <rect
       style="fill:#00ffff;fill-opacity:0.7;stroke:none;stroke-width:6.18708;paint-order:stroke markers fill"
       id="rect47045"
       width="18.76145"
       height="25.215664"
       x="162.18852"
       y="234.89516"
       transform="matrix(0.7405445,-0.67200733,0,1,0,0)" />
    <rect
       style="fill:#ffff00;fill-opacity:0.7;stroke:none;stroke-width:6.49493;paint-order:stroke markers fill"
       id="rect47047"
       width="27.787376"
       height="18.76145"
       x="230.98367"
       y="168.48347"
       transform="matrix(1,0,-0.74054453,0.67200729,0,0)" />
    <rect
       style="fill:#ff0000;fill-opacity:0.7;stroke:none;stroke-width:7.52967;paint-order:stroke markers fill"
       id="rect47049"
       width="27.873659"
       height="25.293961"
       x="17.343914"
       y="91.876808" />
    <rect
       style="fill:#00ffff;fill-opacity:0.7;stroke:none;stroke-width:6.18708;paint-order:stroke markers fill"
       id="rect47051"
       width="18.76145"
       height="25.215664"
       x="60.963951"
       y="132.85965"
       transform="matrix(0.7405445,-0.67200733,0,1,0,0)" />
    <rect
       style="fill:#ffff00;fill-opacity:0.7;stroke:none;stroke-width:6.49493;paint-order:stroke markers fill"
       id="rect47053"
       width="27.787376"
       height="18.76145"
       x="118.54169"
       y="117.8712"
       transform="matrix(1,0,-0.74054453,0.67200729,0,0)" />
    <rect
       style="fill:#ff0000;fill-opacity:0.7;stroke:none;stroke-width:7.52967;paint-order:stroke markers fill"
       id="rect47055"
       width="27.873659"
       height="25.293961"
       x="54.824577"
       y="91.876808" />
    <rect
       style="fill:#00ffff;fill-opacity:0.7;stroke:none;stroke-width:6.18708;paint-order:stroke markers fill"
       id="rect47057"
       width="18.76145"
       height="25.215664"
       x="111.57623"
       y="166.87149"
       transform="matrix(0.7405445,-0.67200733,0,1,0,0)" />
    <rect
       style="fill:#ffff00;fill-opacity:0.7;stroke:none;stroke-width:6.49493;paint-order:stroke markers fill"
       id="rect47059"
       width="27.787376"
       height="18.76145"
       x="156.02235"
       y="117.8712"
       transform="matrix(1,0,-0.74054453,0.67200729,0,0)" />
    <rect
       style="fill:#ff0000;fill-opacity:0.7;stroke:none;stroke-width:7.52967;paint-order:stroke markers fill"
       id="rect47061"
       width="27.873659"
       height="25.293961"
       x="92.305222"
       y="91.876808" />
    <rect
       style="fill:#00ffff;fill-opacity:0.7;stroke:none;stroke-width:6.18708;paint-order:stroke markers fill"
       id="rect47063"
       width="18.76145"
       height="25.215664"
       x="162.18852"
       y="200.88332"
       transform="matrix(0.7405445,-0.67200733,0,1,0,0)" />
    <rect
       style="fill:#ffff00;fill-opacity:0.7;stroke:none;stroke-width:6.49493;paint-order:stroke markers fill"
       id="rect47065"
       width="27.787376"
       height="18.76145"
       x="193.50302"
       y="117.8712"
       transform="matrix(1,0,-0.74054453,0.67200729,0,0)" />
    <rect
       style="fill:#ff0000;fill-opacity:0.7;stroke:none;stroke-width:7.52967;paint-order:stroke markers fill"
       id="rect47067"
       width="27.873659"
       height="25.293961"
       x="17.343914"
       y="57.278568" />
    <rect
       style="fill:#00ffff;fill-opacity:0.7;stroke:none;stroke-width:6.18708;paint-order:stroke markers fill"
       id="rect47069"
       width="18.76145"
       height="25.215664"
       x="60.963951"
       y="98.261414"
       transform="matrix(0.7405445,-0.67200733,0,1,0,0)" />
    <rect
       style="fill:#ffff00;fill-opacity:0.7;stroke:none;stroke-width:6.49493;paint-order:stroke markers fill"
       id="rect47071"
       width="27.787376"
       height="18.76145"
       x="80.414833"
       y="66.386284"
       transform="matrix(1,0,-0.74054453,0.67200729,0,0)" />
    <rect
       style="fill:#ff0000;fill-opacity:0.7;stroke:none;stroke-width:7.52967;paint-order:stroke markers fill"
       id="rect47073"
       width="27.873659"
       height="25.293961"
       x="54.824577"
       y="57.278568" />
    <rect
       style="fill:#00ffff;fill-opacity:0.7;stroke:none;stroke-width:6.18708;paint-order:stroke markers fill"
       id="rect47075"
       width="18.76145"
       height="25.215664"
       x="111.57623"
       y="132.27324"
       transform="matrix(0.7405445,-0.67200733,0,1,0,0)" />
    <rect
       style="fill:#ffff00;fill-opacity:0.7;stroke:none;stroke-width:6.49493;paint-order:stroke markers fill"
       id="rect47077"
       width="27.787376"
       height="18.76145"
       x="117.89548"
       y="66.386284"
       transform="matrix(1,0,-0.74054453,0.67200729,0,0)" />
    <rect
       style="fill:#ff0000;fill-opacity:0.7;stroke:none;stroke-width:7.52967;paint-order:stroke markers fill"
       id="rect47079"
       width="27.873659"
       height="25.293961"
       x="92.305222"
       y="57.278568" />
    <rect
       style="fill:#00ffff;fill-opacity:0.7;stroke:none;stroke-width:6.18708;paint-order:stroke markers fill"
       id="rect47081"
       width="18.76145"
       height="25.215664"
       x="162.18852"
       y="166.28506"
       transform="matrix(0.7405445,-0.67200733,0,1,0,0)" />
    <rect
       style="fill:#ffff00;fill-opacity:0.7;stroke:none;stroke-width:6.49493;paint-order:stroke markers fill"
       id="rect47083"
       width="27.787376"
       height="18.76145"
       x="155.37613"
       y="66.386284"
       transform="matrix(1,0,-0.74054453,0.67200729,0,0)" />
  </g>
</svg>
